<svg aria-hidden="true" style="position:absolute;width:0;height:0" xmlns="http://www.w3.org/2000/svg" overflow="hidden">
  <defs>
    <symbol id="icon-male-female" viewBox="0 0 32 32">
      <path fill="var(--color1, #f6b83d)" d="M11.694 10.327a4.665 4.665 0 1 0 2.912 3.635.654.654 0 0 1 .313-.672.653.653 0 0 1 .504-.078.67.67 0 0 1 .501.546 5.993 5.993 0 0 1-3.514 6.403 5.997 5.997 0 1 1-.232-11.077.665.665 0 0 1 .433.609.669.669 0 0 1-.403.628.665.665 0 0 1-.515.006z"/>
      <path fill="var(--color1, #f6b83d)" d="M9.331 26v-5.331a.665.665 0 1 1 1.332 0V26a.665.665 0 1 1-1.332 0z"/>
      <path fill="var(--color1, #f6b83d)" d="M7.332 22.668a.665.665 0 0 1 .666-.666h3.998a.665.665 0 1 1 0 1.332H7.998a.665.665 0 0 1-.666-.666zm11.93-12.486a4.653 4.653 0 0 0-4.297.943 4.678 4.678 0 0 0-1.315 1.848 4.652 4.652 0 0 0-.288 2.249.67.67 0 0 1-.335.663.665.665 0 0 1-.989-.507 5.997 5.997 0 1 1 3.582 4.801.655.655 0 0 1-.355-.365.668.668 0 0 1 .883-.859 4.665 4.665 0 1 0 3.115-8.773z"/>
      <path fill="var(--color1, #f6b83d)" d="M21.855 11.477a.665.665 0 0 1 0-.942l4.998-4.998a.658.658 0 0 1 .473-.203.655.655 0 0 1 .477.196.673.673 0 0 1 .196.477.669.669 0 0 1-.203.473l-4.998 4.998a.667.667 0 0 1-.942 0z"/>
      <path fill="var(--color1, #f6b83d)" d="M27.273 10.007a.669.669 0 0 1-.657-.675l.033-2.648-2.648.033a.67.67 0 0 1-.675-.658.67.67 0 0 1 .658-.675L28 5.333l-.051 4.016a.65.65 0 0 1-.201.468c-.063.061-.137.109-.218.142s-.168.049-.256.047z"/>
    </symbol>
    <symbol id="icon-male" viewBox="0 0 32 32">
      <path fill="none" stroke="var(--color2, #54adff)" stroke-linejoin="round" stroke-linecap="round" stroke-width="2" d="M16 14.667a6.667 6.667 0 1 0 0 13.334 6.667 6.667 0 0 0 0-13.334zm0 0V4m-5.333 5.333L16 4l5.333 5.333"/>
    </symbol>
    <symbol id="icon-female" viewBox="0 0 32 32">
      <path fill="none" stroke="var(--color3, #f43f5e)" stroke-linejoin="round" stroke-linecap="round" stroke-width="2" d="M16 17.333a6.667 6.667 0 1 0 0-13.334 6.667 6.667 0 0 0 0 13.334zm0 0V28m-4-4h8"/>
    </symbol>
    <symbol id="icon-user" viewBox="0 0 32 32">
      <path fill="var(--color1, #f6b83d)" stroke="var(--color1, #f6b83d)" stroke-linejoin="round" stroke-linecap="round" stroke-width="2.667" d="M16 20c-4.227 0-7.986 2.041-10.379 5.208-.515.682-.773 1.022-.764 1.483.006.356.23.805.51 1.025.362.284.865.284 1.869.284h17.527c1.005 0 1.507 0 1.869-.284.28-.22.503-.669.51-1.025.008-.461-.249-.801-.764-1.483C23.985 22.041 20.226 20 15.999 20zM16 16a6 6 0 1 0 0-12 6 6 0 0 0 0 12z"/>
    </symbol>
    <symbol id="icon-edit" viewBox="0 0 32 32">
      <path fill="none" stroke="var(--color1, #f6b83d)" stroke-linejoin="round" stroke-linecap="round" stroke-width="2.667" d="M22.667 4a3.766 3.766 0 0 1 4.109-.817 3.766 3.766 0 0 1 2.327 3.484 3.779 3.779 0 0 1-1.104 2.666l-18 18-7.333 2 2-7.333 18-18z"/>
    </symbol>
    <symbol id="icon-trash" viewBox="0 0 32 32">
      <path fill="none" stroke="var(--color1, #f6b83d)" stroke-linejoin="round" stroke-linecap="round" stroke-width="2.667" d="M4 8h24M25.333 8v18.667a2.668 2.668 0 0 1-2.667 2.667H9.333a2.668 2.668 0 0 1-2.667-2.667V8m4.001 0V5.333a2.668 2.668 0 0 1 2.667-2.667h5.333a2.668 2.668 0 0 1 2.667 2.667V8M13.333 14.667v8M18.667 14.667v8"/>
    </symbol>
    <symbol id="icon-heart" viewBox="0 0 32 32">
      <path fill="none" stroke="var(--color1, #f6b83d)" stroke-linejoin="round" stroke-linecap="round" stroke-width="2.667" d="M27.788 6.147a7.345 7.345 0 0 0-5.187-2.15 7.33 7.33 0 0 0-5.187 2.15L16.001 7.56l-1.413-1.413a7.333 7.333 0 0 0-10.374 0 7.333 7.333 0 0 0 0 10.374l11.787 11.787 11.787-11.787a7.345 7.345 0 0 0 2.149-5.187 7.33 7.33 0 0 0-2.149-5.187z"/>
    </symbol>
    <symbol id="icon-star" viewBox="0 0 32 32">
      <path fill="var(--color4, #ffc531)" stroke="var(--color4, #ffc531)" stroke-width="2.4" d="M19.6 9.395a2.201 2.201 0 0 0 1.57 1.141l7.6 1.313-5.375 5.535a2.2 2.2 0 0 0-.6 1.846l1.098 7.635-6.922-3.402-.234-.1a2.203 2.203 0 0 0-1.473 0l-.234.1-6.924 3.402 1.1-7.635a2.2 2.2 0 0 0-.6-1.846l-5.377-5.535 7.602-1.313a2.198 2.198 0 0 0 1.57-1.141l3.6-6.822 3.6 6.822z"/>
    </symbol>
    <symbol id="icon-calendar" viewBox="0 0 32 32">
      <path stroke-linejoin="round" stroke-linecap="round" stroke-width="2.88" d="M25.333 5.333H6.666A2.667 2.667 0 0 0 3.999 8v18.667a2.667 2.667 0 0 0 2.667 2.667h18.667A2.667 2.667 0 0 0 28 26.667V8a2.667 2.667 0 0 0-2.667-2.667zM21.333 2.667V8M10.667 2.667V8M4 13.333h24"/>
    </symbol>
    <symbol id="icon-chevron-down" viewBox="0 0 32 32">
      <path stroke-linejoin="round" stroke-linecap="round" stroke-width="3.556" d="M8 12l8 8 8-8"/>
    </symbol>
    <symbol id="icon-search" viewBox="0 0 32 32">
      <path stroke-linejoin="round" stroke-linecap="round" stroke-width="3.556" d="M14.667 25.333c5.891 0 10.667-4.776 10.667-10.667S20.558 3.999 14.667 3.999 4 8.775 4 14.666s4.776 10.667 10.667 10.667zM28.001 28l-5.8-5.8"/>
    </symbol>
    <symbol id="icon-check" viewBox="0 0 32 32">
      <path fill="none" stroke="var(--color5, #08aa83)" stroke-linejoin="round" stroke-linecap="round" stroke-width="2.182" d="M26.667 9.333L12 24l-6.667-6.667"/>
    </symbol>
    <symbol id="icon-cross-small" viewBox="0 0 32 32">
      <path fill="none" stroke="var(--color6, #ef2447)" stroke-linejoin="round" stroke-linecap="round" stroke-width="2.909" d="M25.333 6.667L6.666 25.334m0-18.667l18.667 18.667"/>
    </symbol>
    <symbol id="icon-eye" viewBox="0 0 32 32">
      <path fill="none" stroke="var(--color1, #f6b83d)" stroke-linejoin="round" stroke-linecap="round" stroke-width="2.909" d="M1.332 16S6.665 5.333 15.999 5.333 30.666 16 30.666 16s-5.333 10.667-14.667 10.667C6.666 26.667 1.332 16 1.332 16z"/>
      <path fill="none" stroke="var(--color1, #f6b83d)" stroke-linejoin="round" stroke-linecap="round" stroke-width="2.909" d="M16 20a4 4 0 1 0 0-8 4 4 0 0 0 0 8z"/>
    </symbol>
    <symbol id="icon-eye-off" viewBox="0 0 32 32">
      <path fill="none" stroke="var(--color1, #f6b83d)" stroke-linejoin="round" stroke-linecap="round" stroke-width="2.909" d="M23.922 23.92a13.43 13.43 0 0 1-7.92 2.747C6.669 26.667 1.335 16 1.335 16a24.605 24.605 0 0 1 6.747-7.92m5.12-2.427a12.161 12.161 0 0 1 2.8-.32C25.335 5.333 30.669 16 30.669 16a24.646 24.646 0 0 1-2.88 4.253m-8.961-1.426a4.01 4.01 0 0 1-2.855 1.273 3.996 3.996 0 0 1-3.779-2.501 3.995 3.995 0 0 1 .983-4.424M1.335 1.333l29.333 29.333"/>
    </symbol>
    <symbol id="icon-logo" viewBox="0 0 105 32">
      <path fill="var(--color7, #262626)" d="M9.226 25.42c-1.475 0-2.711-.35-3.71-1.05s-1.75-1.652-2.254-2.856c-.504-1.213-.756-2.571-.756-4.074 0-1.521.252-2.884.756-4.088s1.241-2.151 2.212-2.842c.98-.7 2.189-1.05 3.626-1.05 1.428 0 2.665.35 3.71 1.05 1.055.691 1.871 1.638 2.45 2.842.579 1.195.868 2.557.868 4.088 0 1.512-.285 2.87-.854 4.074s-1.372 2.156-2.408 2.856c-1.036.7-2.249 1.05-3.64 1.05zm-7.294 6.3V9.88h2.982v10.612h.42V31.72H1.932zm6.776-9.324c.877 0 1.601-.219 2.17-.658s.989-1.031 1.26-1.778c.28-.756.42-1.596.42-2.52 0-.915-.14-1.745-.42-2.492-.28-.756-.714-1.353-1.302-1.792-.588-.448-1.335-.672-2.24-.672-.859 0-1.559.21-2.1.63-.541.411-.943.989-1.204 1.736-.252.737-.378 1.601-.378 2.59 0 .98.126 1.843.378 2.59.261.747.667 1.33 1.218 1.75.56.411 1.293.616 2.198.616zm16.26 3.024c-1.531 0-2.875-.331-4.032-.994s-2.063-1.582-2.716-2.758c-.644-1.176-.966-2.529-.966-4.06 0-1.652.317-3.085.952-4.298.635-1.223 1.517-2.17 2.646-2.842s2.436-1.008 3.92-1.008c1.568 0 2.898.369 3.99 1.106 1.101.728 1.918 1.759 2.45 3.094s.733 2.907.602 4.718h-3.346v-1.232c-.009-1.643-.299-2.842-.868-3.598s-1.465-1.134-2.688-1.134c-1.381 0-2.408.429-3.08 1.288-.672.849-1.008 2.095-1.008 3.738 0 1.531.336 2.716 1.008 3.556s1.652 1.26 2.94 1.26c.831 0 1.545-.182 2.142-.546.607-.373 1.073-.91 1.4-1.61l3.332 1.008c-.579 1.363-1.475 2.422-2.688 3.178-1.204.756-2.534 1.134-3.99 1.134zm-5.208-7.042V15.83h10.402v2.548H19.76zM42.68 25c-.999.187-1.979.266-2.94.238-.952-.019-1.806-.191-2.562-.518a3.55 3.55 0 0 1-1.722-1.582c-.345-.653-.527-1.321-.546-2.002s-.028-1.451-.028-2.31V5.68h3.36v12.95c0 .607.005 1.139.014 1.596.019.457.117.831.294 1.12.336.56.873.873 1.61.938s1.577.028 2.52-.112V25zM32.138 12.526V9.88H42.68v2.646H32.138zM45.091 25V4.42h3.374V25h-3.374z"/>
      <path fill="var(--color1, #f6b83d)" d="M62.493 10.434c-1.839-2.172-4.907-2.756-7.211-.767s-2.629 5.314-.819 7.666c1.159 1.506 4.128 4.3 6.113 6.114.66.603.989.904 1.384 1.025.34.104.728.104 1.067 0 .395-.121.725-.422 1.384-1.025 1.985-1.814 4.954-4.608 6.113-6.114 1.81-2.352 1.525-5.698-.819-7.666s-5.372-1.405-7.211.767z"/>
      <path fill="var(--color7, #262626)" d="M80.048 25L74.56 9.88h3.374l3.808 10.962L85.536 9.88h3.388L83.436 25h-3.388zm16.596.42c-1.531 0-2.875-.331-4.032-.994s-2.063-1.582-2.716-2.758c-.644-1.176-.966-2.529-.966-4.06 0-1.652.317-3.085.952-4.298.635-1.223 1.517-2.17 2.646-2.842s2.436-1.008 3.92-1.008c1.568 0 2.898.369 3.99 1.106 1.101.728 1.918 1.759 2.45 3.094s.732 2.907.602 4.718h-3.346v-1.232c-.01-1.643-.299-2.842-.868-3.598s-1.465-1.134-2.688-1.134c-1.381 0-2.408.429-3.08 1.288-.672.849-1.008 2.095-1.008 3.738 0 1.531.336 2.716 1.008 3.556s1.652 1.26 2.94 1.26c.831 0 1.545-.182 2.142-.546.607-.373 1.073-.91 1.4-1.61l3.332 1.008c-.579 1.363-1.475 2.422-2.688 3.178-1.204.756-2.534 1.134-3.99 1.134zm-5.208-7.042V15.83h10.402v2.548H91.436z"/>
    </symbol>
    <symbol id="icon-upload-cloud" viewBox="0 0 32 32">
      <path fill="none" stroke="#f6b83d" style="stroke: var(--color1, #f6b83d)" stroke-linejoin="round" stroke-linecap="round" stroke-miterlimit="4" stroke-width="2.3111" d="M16 16v12"></path>
      <path fill="none" stroke="#f6b83d" style="stroke: var(--color1, #f6b83d)" stroke-linejoin="round" stroke-linecap="round" stroke-miterlimit="4" stroke-width="2.3111" d="M27.187 24.52c1.3-0.709 2.328-1.831 2.92-3.188s0.715-2.874 0.35-4.309-1.198-2.708-2.367-3.618c-1.169-0.909-2.608-1.404-4.089-1.405h-1.68c-0.404-1.561-1.156-3.010-2.2-4.239s-2.353-2.204-3.829-2.854c-1.476-0.65-3.079-0.956-4.691-0.897s-3.188 0.483-4.612 1.24c-1.424 0.756-2.658 1.826-3.609 3.128s-1.595 2.803-1.882 4.389c-0.288 1.587-0.212 3.217 0.222 4.77s1.213 2.988 2.281 4.196"></path>
      <path fill="none" stroke="#f6b83d" style="stroke: var(--color1, #f6b83d)" stroke-linejoin="round" stroke-linecap="round" stroke-miterlimit="4" stroke-width="2.3111" d="M21.333 21.333l-5.333-5.333-5.333 5.333"></path>
    </symbol>
    <symbol id="icon-close" viewBox="0 0 32 32">
      <path stroke-linejoin="round" stroke-linecap="round" stroke-miterlimit="4" stroke-width="3" d="M24 8l-16 16"></path>
      <path stroke-linejoin="round" stroke-linecap="round" stroke-miterlimit="4" stroke-width="3" d="M8 8l16 16"></path>
    </symbol>
  <symbol id="icon-burger-menu" viewBox="0 0 32 32">
    <path stroke-linejoin="round" stroke-linecap="round" stroke-miterlimit="4" stroke-width="3" d="M4 16h24"></path>
    <path stroke-linejoin="round" stroke-linecap="round" stroke-miterlimit="4" stroke-width="3" d="M4 8h24"></path>
    <path stroke-linejoin="round" stroke-linecap="round" stroke-miterlimit="4" stroke-width="3" d="M4 24h24"></path>
  </symbol>
  </defs>
</svg>